<?xml version="1.0" encoding="UTF-8" standalone="no"?>
<!DOCTYPE svg PUBLIC "-//W3C//DTD SVG 1.1//EN"
 "http://www.w3.org/Graphics/SVG/1.1/DTD/svg11.dtd">
<!-- Generated by graphviz version 2.43.0 (0)
 -->
<!-- Title: search Pages: 1 -->
<svg width="4020pt" height="781pt"
 viewBox="14.40 14.40 1688.17 316.39" xmlns="http://www.w3.org/2000/svg" xmlns:xlink="http://www.w3.org/1999/xlink">
<g id="graph0" class="graph" transform="scale(0.42 0.42) rotate(0) translate(18.4 312.39)">
<title>search</title>
<polygon fill="white" stroke="transparent" points="-4,4 -4,-297.99 1669.77,-297.99 1669.77,4 -4,4"/>
<!-- nofreeze -->
<g id="node1" class="node">
<title>nofreeze</title>
<path fill="#9ec5fe" stroke="black" d="M143,-209.49C143,-209.49 12,-209.49 12,-209.49 6,-209.49 0,-203.49 0,-197.49 0,-197.49 0,-166.49 0,-166.49 0,-160.49 6,-154.49 12,-154.49 12,-154.49 143,-154.49 143,-154.49 149,-154.49 155,-160.49 155,-166.49 155,-166.49 155,-197.49 155,-197.49 155,-203.49 149,-209.49 143,-209.49"/>
<text text-anchor="middle" x="77.5" y="-193.29" font-family="Helvetica,sans-Serif" font-weight="bold" font-size="14.00">nofreeze</text>
<text text-anchor="middle" x="77.5" y="-178.29" font-family="Helvetica,sans-Serif" font-weight="bold" font-size="14.00">[deepening] 2run</text>
<text text-anchor="middle" x="77.5" y="-163.29" font-family="Helvetica,sans-Serif" font-weight="bold" font-size="14.00">gains [0.1]</text>
</g>
<!-- d3v21s -->
<g id="node2" class="node">
<title>d3v21s</title>
<path fill="lightgrey" stroke="black" d="M103,-291.99C103,-291.99 52,-291.99 52,-291.99 46,-291.99 40,-285.99 40,-279.99 40,-279.99 40,-267.99 40,-267.99 40,-261.99 46,-255.99 52,-255.99 52,-255.99 103,-255.99 103,-255.99 109,-255.99 115,-261.99 115,-267.99 115,-267.99 115,-279.99 115,-279.99 115,-285.99 109,-291.99 103,-291.99"/>
<text text-anchor="middle" x="77.5" y="-270.29" font-family="Helvetica,sans-Serif" font-weight="bold" font-size="14.00">d3v21s</text>
</g>
<!-- d3v21s&#45;&gt;nofreeze -->
<g id="edge1" class="edge">
<title>d3v21s&#45;&gt;nofreeze</title>
<path fill="none" stroke="black" d="M77.5,-255.64C77.5,-245.43 77.5,-232.11 77.5,-219.67"/>
<polygon fill="black" stroke="black" points="81,-219.51 77.5,-209.51 74,-219.51 81,-219.51"/>
</g>
<!-- mix -->
<g id="node3" class="node">
<title>mix</title>
<path fill="#9ec5fe" stroke="black" d="M320,-201.99C320,-201.99 189,-201.99 189,-201.99 183,-201.99 177,-195.99 177,-189.99 177,-189.99 177,-173.99 177,-173.99 177,-167.99 183,-161.99 189,-161.99 189,-161.99 320,-161.99 320,-161.99 326,-161.99 332,-167.99 332,-173.99 332,-173.99 332,-189.99 332,-189.99 332,-195.99 326,-201.99 320,-201.99"/>
<text text-anchor="middle" x="254.5" y="-185.79" font-family="Helvetica,sans-Serif" font-weight="bold" font-size="14.00">mix</text>
<text text-anchor="middle" x="254.5" y="-170.79" font-family="Helvetica,sans-Serif" font-weight="bold" font-size="14.00">[deepening] 1run</text>
</g>
<!-- d3v22s -->
<g id="node4" class="node">
<title>d3v22s</title>
<path fill="lightgrey" stroke="black" d="M280,-291.99C280,-291.99 229,-291.99 229,-291.99 223,-291.99 217,-285.99 217,-279.99 217,-279.99 217,-267.99 217,-267.99 217,-261.99 223,-255.99 229,-255.99 229,-255.99 280,-255.99 280,-255.99 286,-255.99 292,-261.99 292,-267.99 292,-267.99 292,-279.99 292,-279.99 292,-285.99 286,-291.99 280,-291.99"/>
<text text-anchor="middle" x="254.5" y="-270.29" font-family="Helvetica,sans-Serif" font-weight="bold" font-size="14.00">d3v22s</text>
</g>
<!-- d3v22s&#45;&gt;mix -->
<g id="edge2" class="edge">
<title>d3v22s&#45;&gt;mix</title>
<path fill="none" stroke="black" d="M254.5,-255.64C254.5,-243.43 254.5,-226.78 254.5,-212.51"/>
<polygon fill="black" stroke="black" points="258,-212.16 254.5,-202.16 251,-212.16 258,-212.16"/>
</g>
<!-- bs512 -->
<g id="node5" class="node">
<title>bs512</title>
<path fill="#9ec5fe" stroke="black" d="M497,-201.99C497,-201.99 366,-201.99 366,-201.99 360,-201.99 354,-195.99 354,-189.99 354,-189.99 354,-173.99 354,-173.99 354,-167.99 360,-161.99 366,-161.99 366,-161.99 497,-161.99 497,-161.99 503,-161.99 509,-167.99 509,-173.99 509,-173.99 509,-189.99 509,-189.99 509,-195.99 503,-201.99 497,-201.99"/>
<text text-anchor="middle" x="431.5" y="-185.79" font-family="Helvetica,sans-Serif" font-weight="bold" font-size="14.00">bs512</text>
<text text-anchor="middle" x="431.5" y="-170.79" font-family="Helvetica,sans-Serif" font-weight="bold" font-size="14.00">[deepening] 1run</text>
</g>
<!-- d3v23 -->
<g id="node6" class="node">
<title>d3v23</title>
<path fill="lightgrey" stroke="black" d="M453,-291.99C453,-291.99 410,-291.99 410,-291.99 404,-291.99 398,-285.99 398,-279.99 398,-279.99 398,-267.99 398,-267.99 398,-261.99 404,-255.99 410,-255.99 410,-255.99 453,-255.99 453,-255.99 459,-255.99 465,-261.99 465,-267.99 465,-267.99 465,-279.99 465,-279.99 465,-285.99 459,-291.99 453,-291.99"/>
<text text-anchor="middle" x="431.5" y="-270.29" font-family="Helvetica,sans-Serif" font-weight="bold" font-size="14.00">d3v23</text>
</g>
<!-- d3v23&#45;&gt;bs512 -->
<g id="edge3" class="edge">
<title>d3v23&#45;&gt;bs512</title>
<path fill="none" stroke="black" d="M431.5,-255.64C431.5,-243.43 431.5,-226.78 431.5,-212.51"/>
<polygon fill="black" stroke="black" points="435,-212.16 431.5,-202.16 428,-212.16 435,-212.16"/>
</g>
<!-- loss&#45;weights -->
<g id="node7" class="node">
<title>loss&#45;weights</title>
<path fill="#ffd43b" stroke="black" d="M711.5,-209.49C711.5,-209.49 543.5,-209.49 543.5,-209.49 537.5,-209.49 531.5,-203.49 531.5,-197.49 531.5,-197.49 531.5,-166.49 531.5,-166.49 531.5,-160.49 537.5,-154.49 543.5,-154.49 543.5,-154.49 711.5,-154.49 711.5,-154.49 717.5,-154.49 723.5,-160.49 723.5,-166.49 723.5,-166.49 723.5,-197.49 723.5,-197.49 723.5,-203.49 717.5,-209.49 711.5,-209.49"/>
<text text-anchor="middle" x="627.5" y="-193.29" font-family="Helvetica,sans-Serif" font-weight="bold" font-size="14.00">loss&#45;weights</text>
<text text-anchor="middle" x="627.5" y="-178.29" font-family="Helvetica,sans-Serif" font-weight="bold" font-size="14.00">[stalled] 4run</text>
<text text-anchor="middle" x="627.5" y="-163.29" font-family="Helvetica,sans-Serif" font-weight="bold" font-size="14.00">gains [0.005, 0.0, 0.0]</text>
</g>
<!-- wall0 -->
<g id="node13" class="node">
<title>wall0</title>
<polygon fill="#ffe066" stroke="black" points="716.5,-84.5 532.5,-84.5 532.5,-14.5 722.5,-14.5 722.5,-78.5 716.5,-84.5"/>
<polyline fill="none" stroke="black" points="716.5,-84.5 716.5,-78.5 "/>
<polyline fill="none" stroke="black" points="722.5,-78.5 716.5,-78.5 "/>
<text text-anchor="middle" x="627.5" y="-68.3" font-family="Helvetica,sans-Serif" font-weight="bold" font-size="14.00">WALL</text>
<text text-anchor="middle" x="627.5" y="-53.3" font-family="Helvetica,sans-Serif" font-weight="bold" font-size="14.00">robotic audio / audio</text>
<text text-anchor="middle" x="627.5" y="-38.3" font-family="Helvetica,sans-Serif" font-weight="bold" font-size="14.00">head ignores text</text>
<text text-anchor="middle" x="627.5" y="-23.3" font-family="Helvetica,sans-Serif" font-weight="bold" font-size="14.00">(blank&#45;text ablation…</text>
</g>
<!-- loss&#45;weights&#45;&gt;wall0 -->
<g id="edge7" class="edge">
<title>loss&#45;weights&#45;&gt;wall0</title>
<path fill="none" stroke="black" stroke-dasharray="1,5" d="M627.5,-154.27C627.5,-134.14 627.5,-106.38 627.5,-84.64"/>
</g>
<!-- d3 -->
<g id="node8" class="node">
<title>d3</title>
<path fill="lightgrey" stroke="black" d="M840.5,-291.99C840.5,-291.99 810.5,-291.99 810.5,-291.99 804.5,-291.99 798.5,-285.99 798.5,-279.99 798.5,-279.99 798.5,-267.99 798.5,-267.99 798.5,-261.99 804.5,-255.99 810.5,-255.99 810.5,-255.99 840.5,-255.99 840.5,-255.99 846.5,-255.99 852.5,-261.99 852.5,-267.99 852.5,-267.99 852.5,-279.99 852.5,-279.99 852.5,-285.99 846.5,-291.99 840.5,-291.99"/>
<text text-anchor="middle" x="825.5" y="-270.29" font-family="Helvetica,sans-Serif" font-weight="bold" font-size="14.00">d3</text>
</g>
<!-- d3&#45;&gt;loss&#45;weights -->
<g id="edge4" class="edge">
<title>d3&#45;&gt;loss&#45;weights</title>
<path fill="none" stroke="black" d="M798.38,-260.67C771.94,-248.65 730.65,-229.88 695.28,-213.8"/>
<polygon fill="black" stroke="black" points="696.5,-210.52 685.95,-209.56 693.61,-216.89 696.5,-210.52"/>
</g>
<!-- layout&#45;chunk -->
<g id="node10" class="node">
<title>layout&#45;chunk</title>
<path fill="#ffc9c9" stroke="black" d="M893.5,-209.49C893.5,-209.49 757.5,-209.49 757.5,-209.49 751.5,-209.49 745.5,-203.49 745.5,-197.49 745.5,-197.49 745.5,-166.49 745.5,-166.49 745.5,-160.49 751.5,-154.49 757.5,-154.49 757.5,-154.49 893.5,-154.49 893.5,-154.49 899.5,-154.49 905.5,-160.49 905.5,-166.49 905.5,-166.49 905.5,-197.49 905.5,-197.49 905.5,-203.49 899.5,-209.49 893.5,-209.49"/>
<text text-anchor="middle" x="825.5" y="-193.29" font-family="Helvetica,sans-Serif" font-weight="bold" font-size="14.00">layout&#45;chunk</text>
<text text-anchor="middle" x="825.5" y="-178.29" font-family="Helvetica,sans-Serif" font-weight="bold" font-size="14.00">[abandoned] 1run</text>
<text text-anchor="middle" x="825.5" y="-163.29" font-family="Helvetica,sans-Serif" font-weight="bold" font-size="14.00">gains [0.0]</text>
</g>
<!-- d3&#45;&gt;layout&#45;chunk -->
<g id="edge5" class="edge">
<title>d3&#45;&gt;layout&#45;chunk</title>
<path fill="none" stroke="black" d="M825.5,-255.64C825.5,-245.43 825.5,-232.11 825.5,-219.67"/>
<polygon fill="black" stroke="black" points="829,-219.51 825.5,-209.51 822,-219.51 829,-219.51"/>
</g>
<!-- layout&#45;stream -->
<g id="node11" class="node">
<title>layout&#45;stream</title>
<path fill="#9ec5fe" stroke="black" d="M1071,-209.49C1071,-209.49 940,-209.49 940,-209.49 934,-209.49 928,-203.49 928,-197.49 928,-197.49 928,-166.49 928,-166.49 928,-160.49 934,-154.49 940,-154.49 940,-154.49 1071,-154.49 1071,-154.49 1077,-154.49 1083,-160.49 1083,-166.49 1083,-166.49 1083,-197.49 1083,-197.49 1083,-203.49 1077,-209.49 1071,-209.49"/>
<text text-anchor="middle" x="1005.5" y="-193.29" font-family="Helvetica,sans-Serif" font-weight="bold" font-size="14.00">layout&#45;stream</text>
<text text-anchor="middle" x="1005.5" y="-178.29" font-family="Helvetica,sans-Serif" font-weight="bold" font-size="14.00">[deepening] 1run</text>
<text text-anchor="middle" x="1005.5" y="-163.29" font-family="Helvetica,sans-Serif" font-weight="bold" font-size="14.00">gains [0.2]</text>
</g>
<!-- d3&#45;&gt;layout&#45;stream -->
<g id="edge6" class="edge">
<title>d3&#45;&gt;layout&#45;stream</title>
<path fill="none" stroke="black" d="M852.84,-259.33C876.83,-247.33 912.61,-229.44 943.5,-213.99"/>
<polygon fill="black" stroke="black" points="945.11,-217.1 952.49,-209.5 941.98,-210.84 945.11,-217.1"/>
</g>
<!-- codec -->
<g id="node9" class="node">
<title>codec</title>
<path fill="#dddddd" stroke="black" d="M1255.5,-293.99C1255.5,-293.99 1167.5,-293.99 1167.5,-293.99 1161.5,-293.99 1155.5,-287.99 1155.5,-281.99 1155.5,-281.99 1155.5,-265.99 1155.5,-265.99 1155.5,-259.99 1161.5,-253.99 1167.5,-253.99 1167.5,-253.99 1255.5,-253.99 1255.5,-253.99 1261.5,-253.99 1267.5,-259.99 1267.5,-265.99 1267.5,-265.99 1267.5,-281.99 1267.5,-281.99 1267.5,-287.99 1261.5,-293.99 1255.5,-293.99"/>
<text text-anchor="middle" x="1211.5" y="-277.79" font-family="Helvetica,sans-Serif" font-weight="bold" font-size="14.00">codec</text>
<text text-anchor="middle" x="1211.5" y="-262.79" font-family="Helvetica,sans-Serif" font-weight="bold" font-size="14.00">[open] 0run</text>
</g>
<!-- wall1 -->
<g id="node14" class="node">
<title>wall1</title>
<polygon fill="#ffe066" stroke="black" points="1311.5,-216.99 1105.5,-216.99 1105.5,-146.99 1317.5,-146.99 1317.5,-210.99 1311.5,-216.99"/>
<polyline fill="none" stroke="black" points="1311.5,-216.99 1311.5,-210.99 "/>
<polyline fill="none" stroke="black" points="1317.5,-210.99 1311.5,-210.99 "/>
<text text-anchor="middle" x="1211.5" y="-200.79" font-family="Helvetica,sans-Serif" font-weight="bold" font-size="14.00">WALL</text>
<text text-anchor="middle" x="1211.5" y="-185.79" font-family="Helvetica,sans-Serif" font-weight="bold" font-size="14.00">silent audio at</text>
<text text-anchor="middle" x="1211.5" y="-170.79" font-family="Helvetica,sans-Serif" font-weight="bold" font-size="14.00">inference: pure zeros</text>
<text text-anchor="middle" x="1211.5" y="-155.79" font-family="Helvetica,sans-Serif" font-weight="bold" font-size="14.00">encode to OOD code 351</text>
</g>
<!-- codec&#45;&gt;wall1 -->
<g id="edge8" class="edge">
<title>codec&#45;&gt;wall1</title>
<path fill="none" stroke="black" stroke-dasharray="1,5" d="M1211.5,-253.91C1211.5,-243.28 1211.5,-229.72 1211.5,-217.32"/>
</g>
<!-- inner&#45;monologue -->
<g id="node12" class="node">
<title>inner&#45;monologue</title>
<path fill="#dddddd" stroke="black" d="M1573.5,-293.99C1573.5,-293.99 1445.5,-293.99 1445.5,-293.99 1439.5,-293.99 1433.5,-287.99 1433.5,-281.99 1433.5,-281.99 1433.5,-265.99 1433.5,-265.99 1433.5,-259.99 1439.5,-253.99 1445.5,-253.99 1445.5,-253.99 1573.5,-253.99 1573.5,-253.99 1579.5,-253.99 1585.5,-259.99 1585.5,-265.99 1585.5,-265.99 1585.5,-281.99 1585.5,-281.99 1585.5,-287.99 1579.5,-293.99 1573.5,-293.99"/>
<text text-anchor="middle" x="1509.5" y="-277.79" font-family="Helvetica,sans-Serif" font-weight="bold" font-size="14.00">inner&#45;monologue</text>
<text text-anchor="middle" x="1509.5" y="-262.79" font-family="Helvetica,sans-Serif" font-weight="bold" font-size="14.00">[open] 0run</text>
</g>
<!-- wall2 -->
<g id="node16" class="node">
<title>wall2</title>
<polygon fill="#ffe066" stroke="black" points="1604.5,-209.49 1408.5,-209.49 1408.5,-154.49 1610.5,-154.49 1610.5,-203.49 1604.5,-209.49"/>
<polyline fill="none" stroke="black" points="1604.5,-209.49 1604.5,-203.49 "/>
<polyline fill="none" stroke="black" points="1610.5,-203.49 1604.5,-203.49 "/>
<text text-anchor="middle" x="1509.5" y="-193.29" font-family="Helvetica,sans-Serif" font-weight="bold" font-size="14.00">WALL</text>
<text text-anchor="middle" x="1509.5" y="-178.29" font-family="Helvetica,sans-Serif" font-weight="bold" font-size="14.00">model output rambling,</text>
<text text-anchor="middle" x="1509.5" y="-163.29" font-family="Helvetica,sans-Serif" font-weight="bold" font-size="14.00">incoherent</text>
</g>
<!-- inner&#45;monologue&#45;&gt;wall2 -->
<g id="edge10" class="edge">
<title>inner&#45;monologue&#45;&gt;wall2</title>
<path fill="none" stroke="black" stroke-dasharray="1,5" d="M1509.5,-253.91C1509.5,-241.01 1509.5,-223.8 1509.5,-209.56"/>
</g>
<!-- kn_frozen&#45;codec&#45;ctx -->
<g id="node15" class="node">
<title>kn_frozen&#45;codec&#45;ctx</title>
<ellipse fill="#b2f2bb" stroke="black" cx="1211.5" cy="-49.5" rx="119.5" ry="49.49"/>
<text text-anchor="middle" x="1211.5" y="-68.3" font-family="Helvetica,sans-Serif" font-weight="bold" font-size="14.00">READ?</text>
<text text-anchor="middle" x="1211.5" y="-53.3" font-family="Helvetica,sans-Serif" font-weight="bold" font-size="14.00">Frozen tokenizer —</text>
<text text-anchor="middle" x="1211.5" y="-38.3" font-family="Helvetica,sans-Serif" font-weight="bold" font-size="14.00">context&#45;dependent</text>
<text text-anchor="middle" x="1211.5" y="-23.3" font-family="Helvetica,sans-Serif" font-weight="bold" font-size="14.00">quantization</text>
</g>
<!-- wall1&#45;&gt;kn_frozen&#45;codec&#45;ctx -->
<g id="edge9" class="edge">
<title>wall1&#45;&gt;kn_frozen&#45;codec&#45;ctx</title>
<path fill="none" stroke="black" stroke-dasharray="5,2" d="M1211.5,-146.71C1211.5,-135.27 1211.5,-122.17 1211.5,-109.41"/>
<polygon fill="black" stroke="black" points="1215,-109.28 1211.5,-99.28 1208,-109.28 1215,-109.28"/>
<text text-anchor="middle" x="1227.5" y="-120.19" font-family="Helvetica,sans-Serif" font-size="11.00">ready</text>
</g>
<!-- kn_moshi&#45;inner&#45;monologue -->
<g id="node17" class="node">
<title>kn_moshi&#45;inner&#45;monologue</title>
<ellipse fill="#b2f2bb" stroke="black" cx="1509.5" cy="-49.5" rx="156.04" ry="38.78"/>
<text text-anchor="middle" x="1509.5" y="-60.8" font-family="Helvetica,sans-Serif" font-weight="bold" font-size="14.00">READ?</text>
<text text-anchor="middle" x="1509.5" y="-45.8" font-family="Helvetica,sans-Serif" font-weight="bold" font-size="14.00">Moshi — Inner Monologue</text>
<text text-anchor="middle" x="1509.5" y="-30.8" font-family="Helvetica,sans-Serif" font-weight="bold" font-size="14.00">(text+audio streams)</text>
</g>
<!-- wall2&#45;&gt;kn_moshi&#45;inner&#45;monologue -->
<g id="edge11" class="edge">
<title>wall2&#45;&gt;kn_moshi&#45;inner&#45;monologue</title>
<path fill="none" stroke="black" stroke-dasharray="5,2" d="M1509.5,-154.27C1509.5,-138.29 1509.5,-117.51 1509.5,-98.74"/>
<polygon fill="black" stroke="black" points="1513,-98.56 1509.5,-88.56 1506,-98.56 1513,-98.56"/>
<text text-anchor="middle" x="1525.5" y="-120.19" font-family="Helvetica,sans-Serif" font-size="11.00">ready</text>
</g>
</g>
</svg>
